<?xml version="1.0" encoding="utf-8"?>
<!-- Generator: Adobe Illustrator 24.0.3, SVG Export Plug-In . SVG Version: 6.00 Build 0)  -->
<svg version="1.1" id="Layer_2" xmlns="http://www.w3.org/2000/svg" xmlns:xlink="http://www.w3.org/1999/xlink" x="0px" y="0px"
	 viewBox="0 0 200 200" style="enable-background:new 0 0 200 200;" xml:space="preserve">
<style type="text/css">
	.st0{fill:#515151;}
</style>
<path class="st0" d="M114.8,61.3c-2.4,4.4-4.7,8.6-6.9,12.8c-5.8,10.7-11.6,21.4-17.3,32.1c-2.6,4.8-4.6,9.9-5.2,15.4
	c-0.8,7.8,1.5,14.6,6.3,20.7c1,1.2,2.2,2.3,3.4,3.5c1.5,1.5,1.7,3.5,0.4,4.9c-1.3,1.4-3.3,1.5-4.8,0.2c-6.8-6-10.8-13.5-11.9-22.6
	c-1-8.4,1.3-16.1,5-23.3c5.7-11.1,11.8-22.1,17.7-33.1c4.3-7.9,8.6-15.9,12.8-23.8c0.2-0.4,0.4-0.7,0.7-1.3c1.5,2.9,3,5.7,4.5,8.5
	c8.2,15.6,16.4,31.2,24.4,46.9c10.2,19.9,5.4,44.5-11.7,59.1c-28.3,24.2-71.8,10.1-80-26.8c-2.6-11.6-0.9-22.8,4.6-33.3
	c13.3-25.5,26.7-51.1,40-76.6c0.6-1.1,1.3-2.1,2.7-2.3c1.4-0.2,2.5,0.2,3.3,1.3c0.9,1.3,0.8,2.5,0.1,3.9c-2.3,4.4-4.5,8.7-6.8,13.1
	c-11.2,21.5-22.5,43-33.7,64.6c-12.6,24.3,1.9,54.7,28.7,60.4c23.4,4.9,45.9-9.8,50.5-33.2c1.8-9.3,0.7-18.3-3.6-26.7
	C130.5,91,122.8,76.5,115.2,62C115.2,61.8,115,61.6,114.8,61.3z"/>
</svg>
